<svg width="17" height="15" viewBox="0 0 17 15" fill="none" xmlns="http://www.w3.org/2000/svg">
<path id="twi_red copy" fill-rule="evenodd" clip-rule="evenodd" d="M0.176453 12.6162C1.69869 13.565 3.50592 14.1176 5.44895 14.1176C11.776 14.1176 15.2353 9.02534 15.2353 4.60971C15.2353 4.46495 15.232 4.32185 15.2253 4.17874C15.8976 3.70723 16.481 3.11909 16.9412 2.44905C16.3251 2.71541 15.662 2.89409 14.9663 2.9735C15.6763 2.56238 16.2203 1.90558 16.4785 1.12635C15.8137 1.50852 15.0769 1.78646 14.294 1.93618C13.667 1.28766 12.7726 0.882324 11.7835 0.882324C9.88406 0.882324 8.34338 2.37709 8.34338 4.22175C8.34338 4.48481 8.37439 4.73876 8.43307 4.98361C5.57469 4.84464 3.03903 3.51449 1.34411 1.4928C1.04822 1.98747 0.878056 2.5599 0.878056 3.17286C0.878056 4.33177 1.48494 5.35503 2.40784 5.95392C1.8437 5.93821 1.31394 5.78683 0.849556 5.53618C0.849556 5.55025 0.849556 5.56431 0.849556 5.57837C0.849556 7.19639 2.0365 8.54804 3.60819 8.85494C3.32067 8.93187 3.01639 8.97157 2.70289 8.97157C2.48076 8.97157 2.26533 8.95172 2.05578 8.91201C2.4925 10.2405 3.76326 11.2067 5.26789 11.2323C4.09101 12.129 2.60985 12.6617 0.997085 12.6617C0.719629 12.6617 0.446364 12.6485 0.176453 12.6162Z" fill="#AEAEAE"/>
</svg>
