<svg width="26" height="15" viewBox="0 0 26 15" fill="none" xmlns="http://www.w3.org/2000/svg">
<path id="vk_red copy" fill-rule="evenodd" clip-rule="evenodd" d="M12.7786 14.062H14.2393C14.2393 14.062 14.6801 14.0161 14.9053 13.7859C15.1132 13.5737 15.1063 13.1764 15.1063 13.1764C15.1063 13.1764 15.0779 11.3161 15.9872 11.0416C16.8836 10.7713 18.0354 12.8397 19.2553 13.6352C20.1785 14.2373 20.8799 14.1054 20.8799 14.1054L24.1429 14.062C24.1429 14.062 25.8494 13.962 25.0401 12.6882C24.9737 12.5842 24.5682 11.7453 22.6141 10.0226C20.5676 8.21956 20.842 8.51118 23.3069 5.39174C24.8072 3.49287 25.4077 2.33291 25.2196 1.83649C25.041 1.363 23.9375 1.48834 23.9375 1.48834L20.263 1.50964C20.263 1.50964 19.9904 1.47441 19.7885 1.5891C19.5918 1.70132 19.465 1.96346 19.465 1.96346C19.465 1.96346 18.8826 3.43307 18.1079 4.68315C16.4721 7.32091 15.8172 7.46017 15.5498 7.29634C14.9277 6.9146 15.083 5.76365 15.083 4.94528C15.083 2.38862 15.492 1.32286 14.2884 1.0468C13.889 0.955868 13.5948 0.895249 12.5733 0.885418C11.2627 0.872312 10.1532 0.888695 9.52515 1.18114C9.10671 1.37529 8.78404 1.80864 8.98075 1.83321C9.22319 1.86434 9.77363 1.97411 10.0652 2.35094C10.4414 2.83753 10.4285 3.9295 10.4285 3.9295C10.4285 3.9295 10.645 6.93835 9.92288 7.31272C9.42766 7.56831 8.74867 7.04567 7.28974 4.65202C6.54259 3.42652 5.97835 2.07159 5.97835 2.07159C5.97835 2.07159 5.86964 1.81847 5.67552 1.68248C5.43999 1.51865 5.11128 1.46622 5.11128 1.46622L1.61969 1.48834C1.61969 1.48834 1.096 1.50226 0.903605 1.71853C0.731916 1.91103 0.8898 2.30916 0.8898 2.30916C0.8898 2.30916 3.62302 8.38093 6.71773 11.4406C9.55621 14.2463 12.7786 14.062 12.7786 14.062Z" fill="#AEAEAE"/>
</svg>
