<svg width="20" height="15" viewBox="0 0 20 15" fill="none" xmlns="http://www.w3.org/2000/svg">
<path id="Youtube_red Copy" fill-rule="evenodd" clip-rule="evenodd" d="M8.0898 9.94067L8.0892 4.65349L13.1978 7.30619L8.0898 9.94067ZM19.3067 3.73732C19.3067 3.73732 19.1218 2.44066 18.5552 1.86966C17.8361 1.1199 17.0302 1.11637 16.6609 1.07285C14.015 0.882324 10.0462 0.882324 10.0462 0.882324H10.0379C10.0379 0.882324 6.06909 0.882324 3.42321 1.07285C3.05333 1.11637 2.24799 1.1199 1.52832 1.86966C0.961681 2.44066 0.777332 3.73732 0.777332 3.73732C0.777332 3.73732 0.588257 5.26037 0.588257 6.78284V8.21063C0.588257 9.73369 0.777332 11.2562 0.777332 11.2562C0.777332 11.2562 0.961681 12.5528 1.52832 13.1238C2.24799 13.8736 3.19277 13.8501 3.61347 13.9283C5.12607 14.0729 10.042 14.1176 10.042 14.1176C10.042 14.1176 14.015 14.1117 16.6609 13.9212C17.0302 13.8771 17.8361 13.8736 18.5552 13.1238C19.1218 12.5528 19.3067 11.2562 19.3067 11.2562C19.3067 11.2562 19.4958 9.73369 19.4958 8.21063V6.78284C19.4958 5.26037 19.3067 3.73732 19.3067 3.73732Z" fill="#AEAEAE"/>
</svg>
